<mxfile host="Electron" agent="Mozilla/5.0 (Windows NT 10.0; Win64; x64) AppleWebKit/537.36 (KHTML, like Gecko) draw.io/26.0.16 Chrome/132.0.6834.196 Electron/34.2.0 Safari/537.36" version="26.0.16">
  <diagram id="C5RBs43oDa-KdzZeNtuy" name="Page-1">
    <mxGraphModel dx="2812" dy="1278" grid="1" gridSize="10" guides="1" tooltips="1" connect="1" arrows="1" fold="1" page="1" pageScale="1" pageWidth="827" pageHeight="1169" math="0" shadow="0">
      <root>
        <mxCell id="WIyWlLk6GJQsqaUBKTNV-0" />
        <mxCell id="WIyWlLk6GJQsqaUBKTNV-1" parent="WIyWlLk6GJQsqaUBKTNV-0" />
        <mxCell id="zkfFHV4jXpPFQw0GAbJ--0" value="Utilisateur" style="swimlane;fontStyle=2;align=center;verticalAlign=middle;childLayout=stackLayout;horizontal=1;startSize=26;horizontalStack=0;resizeParent=1;resizeLast=0;collapsible=1;marginBottom=0;rounded=0;shadow=0;strokeWidth=1;spacingLeft=4;" parent="WIyWlLk6GJQsqaUBKTNV-1" vertex="1">
          <mxGeometry x="-290" y="90" width="380" height="302" as="geometry">
            <mxRectangle x="220" y="120" width="160" height="26" as="alternateBounds" />
          </mxGeometry>
        </mxCell>
        <mxCell id="zkfFHV4jXpPFQw0GAbJ--1" value="id_utilisateur (int,PK)" style="text;align=left;verticalAlign=top;spacingLeft=4;spacingRight=4;overflow=hidden;rotatable=0;points=[[0,0.5],[1,0.5]];portConstraint=eastwest;" parent="zkfFHV4jXpPFQw0GAbJ--0" vertex="1">
          <mxGeometry y="26" width="380" height="26" as="geometry" />
        </mxCell>
        <mxCell id="zkfFHV4jXpPFQw0GAbJ--2" value="Nom (String)" style="text;align=left;verticalAlign=bottom;spacingLeft=4;spacingRight=4;overflow=hidden;rotatable=0;points=[[0,0.5],[1,0.5]];portConstraint=eastwest;rounded=0;shadow=0;html=0;" parent="zkfFHV4jXpPFQw0GAbJ--0" vertex="1">
          <mxGeometry y="52" width="380" height="18" as="geometry" />
        </mxCell>
        <mxCell id="zkfFHV4jXpPFQw0GAbJ--3" value="Prenom (String)" style="text;align=left;verticalAlign=bottom;spacingLeft=4;spacingRight=4;overflow=hidden;rotatable=0;points=[[0,0.5],[1,0.5]];portConstraint=eastwest;rounded=0;shadow=0;html=0;" parent="zkfFHV4jXpPFQw0GAbJ--0" vertex="1">
          <mxGeometry y="70" width="380" height="20" as="geometry" />
        </mxCell>
        <mxCell id="zkfFHV4jXpPFQw0GAbJ--5" value="Email (String)" style="text;align=left;verticalAlign=middle;spacingLeft=4;spacingRight=4;overflow=hidden;rotatable=0;points=[[0,0.5],[1,0.5]];portConstraint=eastwest;" parent="zkfFHV4jXpPFQw0GAbJ--0" vertex="1">
          <mxGeometry y="90" width="380" height="24" as="geometry" />
        </mxCell>
        <mxCell id="_-Q8mFuV5WVmhwefoIrQ-1" value="Mot_de_passe (String)" style="text;strokeColor=none;align=left;fillColor=none;verticalAlign=middle;rounded=0;spacingLeft=4;fontSize=12;" vertex="1" parent="zkfFHV4jXpPFQw0GAbJ--0">
          <mxGeometry y="114" width="380" height="16" as="geometry" />
        </mxCell>
        <mxCell id="_-Q8mFuV5WVmhwefoIrQ-3" value="Telphone (String)" style="text;strokeColor=none;align=left;fillColor=none;verticalAlign=middle;rounded=0;spacingLeft=4;" vertex="1" parent="zkfFHV4jXpPFQw0GAbJ--0">
          <mxGeometry y="130" width="380" height="20" as="geometry" />
        </mxCell>
        <mxCell id="_-Q8mFuV5WVmhwefoIrQ-5" value="Adresse (String)" style="text;strokeColor=none;align=left;fillColor=none;verticalAlign=middle;rounded=0;spacingLeft=4;" vertex="1" parent="zkfFHV4jXpPFQw0GAbJ--0">
          <mxGeometry y="150" width="380" height="20" as="geometry" />
        </mxCell>
        <mxCell id="_-Q8mFuV5WVmhwefoIrQ-4" value="Type_utilisateur (Enum : Client , Chauffeur , Livreur , Administrateur)" style="text;strokeColor=none;align=left;fillColor=none;verticalAlign=middle;rounded=0;spacingLeft=4;" vertex="1" parent="zkfFHV4jXpPFQw0GAbJ--0">
          <mxGeometry y="170" width="380" height="20" as="geometry" />
        </mxCell>
        <mxCell id="_-Q8mFuV5WVmhwefoIrQ-6" value="Photo_Cart (String)" style="text;strokeColor=none;align=left;fillColor=none;verticalAlign=middle;rounded=0;spacingLeft=4;" vertex="1" parent="zkfFHV4jXpPFQw0GAbJ--0">
          <mxGeometry y="190" width="380" height="20" as="geometry" />
        </mxCell>
        <mxCell id="zkfFHV4jXpPFQw0GAbJ--4" value="" style="line;html=1;strokeWidth=1;align=left;verticalAlign=middle;spacingTop=-1;spacingLeft=3;spacingRight=3;rotatable=0;labelPosition=right;points=[];portConstraint=eastwest;" parent="zkfFHV4jXpPFQw0GAbJ--0" vertex="1">
          <mxGeometry y="210" width="380" height="8" as="geometry" />
        </mxCell>
        <mxCell id="_-Q8mFuV5WVmhwefoIrQ-2" value="+ S&#39;inscrire()" style="text;strokeColor=none;align=left;fillColor=none;verticalAlign=bottom;rounded=0;spacingLeft=4;" vertex="1" parent="zkfFHV4jXpPFQw0GAbJ--0">
          <mxGeometry y="218" width="380" height="20" as="geometry" />
        </mxCell>
        <mxCell id="_-Q8mFuV5WVmhwefoIrQ-7" value="+ Se_Connecter()" style="text;strokeColor=none;align=left;fillColor=none;verticalAlign=middle;rounded=0;spacingLeft=4;" vertex="1" parent="zkfFHV4jXpPFQw0GAbJ--0">
          <mxGeometry y="238" width="380" height="20" as="geometry" />
        </mxCell>
        <mxCell id="_-Q8mFuV5WVmhwefoIrQ-8" value="+ Modifier_Profil()" style="text;strokeColor=none;align=left;fillColor=none;verticalAlign=middle;rounded=0;spacingLeft=4;" vertex="1" parent="zkfFHV4jXpPFQw0GAbJ--0">
          <mxGeometry y="258" width="380" height="20" as="geometry" />
        </mxCell>
        <mxCell id="_-Q8mFuV5WVmhwefoIrQ-9" value="+ Supprimer_Compte()" style="text;strokeColor=none;align=left;fillColor=none;verticalAlign=middle;rounded=0;spacingLeft=4;" vertex="1" parent="zkfFHV4jXpPFQw0GAbJ--0">
          <mxGeometry y="278" width="380" height="20" as="geometry" />
        </mxCell>
        <mxCell id="zkfFHV4jXpPFQw0GAbJ--6" value="Client" style="swimlane;fontStyle=0;align=center;verticalAlign=top;childLayout=stackLayout;horizontal=1;startSize=26;horizontalStack=0;resizeParent=1;resizeLast=0;collapsible=1;marginBottom=0;rounded=0;shadow=0;strokeWidth=1;" parent="WIyWlLk6GJQsqaUBKTNV-1" vertex="1">
          <mxGeometry x="-680" y="517" width="160" height="170" as="geometry">
            <mxRectangle x="130" y="380" width="160" height="26" as="alternateBounds" />
          </mxGeometry>
        </mxCell>
        <mxCell id="zkfFHV4jXpPFQw0GAbJ--7" value="Histoire_Commandes (List)" style="text;align=left;verticalAlign=top;spacingLeft=4;spacingRight=4;overflow=hidden;rotatable=0;points=[[0,0.5],[1,0.5]];portConstraint=eastwest;" parent="zkfFHV4jXpPFQw0GAbJ--6" vertex="1">
          <mxGeometry y="26" width="160" height="26" as="geometry" />
        </mxCell>
        <mxCell id="zkfFHV4jXpPFQw0GAbJ--9" value="" style="line;html=1;strokeWidth=1;align=left;verticalAlign=middle;spacingTop=-1;spacingLeft=3;spacingRight=3;rotatable=0;labelPosition=right;points=[];portConstraint=eastwest;" parent="zkfFHV4jXpPFQw0GAbJ--6" vertex="1">
          <mxGeometry y="52" width="160" height="8" as="geometry" />
        </mxCell>
        <mxCell id="zkfFHV4jXpPFQw0GAbJ--10" value="+ Passer_Commande()" style="text;align=left;verticalAlign=top;spacingLeft=4;spacingRight=4;overflow=hidden;rotatable=0;points=[[0,0.5],[1,0.5]];portConstraint=eastwest;fontStyle=0" parent="zkfFHV4jXpPFQw0GAbJ--6" vertex="1">
          <mxGeometry y="60" width="160" height="26" as="geometry" />
        </mxCell>
        <mxCell id="zkfFHV4jXpPFQw0GAbJ--11" value="+ Suivre_Livraison()" style="text;align=left;verticalAlign=top;spacingLeft=4;spacingRight=4;overflow=hidden;rotatable=0;points=[[0,0.5],[1,0.5]];portConstraint=eastwest;" parent="zkfFHV4jXpPFQw0GAbJ--6" vertex="1">
          <mxGeometry y="86" width="160" height="26" as="geometry" />
        </mxCell>
        <mxCell id="_-Q8mFuV5WVmhwefoIrQ-10" value="+ Evaluer_Service()" style="text;strokeColor=none;align=left;fillColor=none;verticalAlign=middle;rounded=0;spacingLeft=4;" vertex="1" parent="zkfFHV4jXpPFQw0GAbJ--6">
          <mxGeometry y="112" width="160" height="20" as="geometry" />
        </mxCell>
        <mxCell id="_-Q8mFuV5WVmhwefoIrQ-11" value="+ Annuler_Commande()" style="text;strokeColor=none;align=left;fillColor=none;verticalAlign=middle;rounded=0;spacingLeft=4;" vertex="1" parent="zkfFHV4jXpPFQw0GAbJ--6">
          <mxGeometry y="132" width="160" height="20" as="geometry" />
        </mxCell>
        <mxCell id="zkfFHV4jXpPFQw0GAbJ--12" value="" style="endArrow=block;endSize=10;endFill=0;shadow=0;strokeWidth=1;rounded=0;curved=0;edgeStyle=elbowEdgeStyle;elbow=vertical;" parent="WIyWlLk6GJQsqaUBKTNV-1" source="zkfFHV4jXpPFQw0GAbJ--6" target="zkfFHV4jXpPFQw0GAbJ--0" edge="1">
          <mxGeometry width="160" relative="1" as="geometry">
            <mxPoint x="200" y="203" as="sourcePoint" />
            <mxPoint x="200" y="203" as="targetPoint" />
            <Array as="points">
              <mxPoint x="-350" y="450" />
            </Array>
          </mxGeometry>
        </mxCell>
        <mxCell id="zkfFHV4jXpPFQw0GAbJ--13" value="Chauffeur" style="swimlane;fontStyle=0;align=center;verticalAlign=top;childLayout=stackLayout;horizontal=1;startSize=26;horizontalStack=0;resizeParent=1;resizeLast=0;collapsible=1;marginBottom=0;rounded=0;shadow=0;strokeWidth=1;" parent="WIyWlLk6GJQsqaUBKTNV-1" vertex="1">
          <mxGeometry x="334" y="510" width="160" height="170" as="geometry">
            <mxRectangle x="340" y="380" width="170" height="26" as="alternateBounds" />
          </mxGeometry>
        </mxCell>
        <mxCell id="zkfFHV4jXpPFQw0GAbJ--14" value="vehicule (Vehicule)" style="text;align=left;verticalAlign=top;spacingLeft=4;spacingRight=4;overflow=hidden;rotatable=0;points=[[0,0.5],[1,0.5]];portConstraint=eastwest;" parent="zkfFHV4jXpPFQw0GAbJ--13" vertex="1">
          <mxGeometry y="26" width="160" height="26" as="geometry" />
        </mxCell>
        <mxCell id="_-Q8mFuV5WVmhwefoIrQ-12" value="Note_Moyenne (Float)" style="text;strokeColor=none;align=left;fillColor=none;verticalAlign=middle;rounded=0;spacingLeft=4;" vertex="1" parent="zkfFHV4jXpPFQw0GAbJ--13">
          <mxGeometry y="52" width="160" height="20" as="geometry" />
        </mxCell>
        <mxCell id="_-Q8mFuV5WVmhwefoIrQ-14" value="Disponibilite (Bool)" style="text;strokeColor=none;align=left;fillColor=none;verticalAlign=middle;rounded=0;spacingLeft=4;" vertex="1" parent="zkfFHV4jXpPFQw0GAbJ--13">
          <mxGeometry y="72" width="160" height="20" as="geometry" />
        </mxCell>
        <mxCell id="zkfFHV4jXpPFQw0GAbJ--15" value="" style="line;html=1;strokeWidth=1;align=left;verticalAlign=middle;spacingTop=-1;spacingLeft=3;spacingRight=3;rotatable=0;labelPosition=right;points=[];portConstraint=eastwest;" parent="zkfFHV4jXpPFQw0GAbJ--13" vertex="1">
          <mxGeometry y="92" width="160" height="8" as="geometry" />
        </mxCell>
        <mxCell id="_-Q8mFuV5WVmhwefoIrQ-13" value="+ Accepter_Trajet()" style="text;strokeColor=none;align=left;fillColor=none;verticalAlign=middle;rounded=0;spacingLeft=4;" vertex="1" parent="zkfFHV4jXpPFQw0GAbJ--13">
          <mxGeometry y="100" width="160" height="20" as="geometry" />
        </mxCell>
        <mxCell id="_-Q8mFuV5WVmhwefoIrQ-15" value="+ Terminer_Trajet()" style="text;strokeColor=none;align=left;fillColor=none;verticalAlign=middle;rounded=0;spacingLeft=4;" vertex="1" parent="zkfFHV4jXpPFQw0GAbJ--13">
          <mxGeometry y="120" width="160" height="20" as="geometry" />
        </mxCell>
        <mxCell id="zkfFHV4jXpPFQw0GAbJ--16" value="" style="endArrow=block;endSize=10;endFill=0;shadow=0;strokeWidth=1;rounded=0;curved=0;edgeStyle=elbowEdgeStyle;elbow=vertical;" parent="WIyWlLk6GJQsqaUBKTNV-1" source="zkfFHV4jXpPFQw0GAbJ--13" target="zkfFHV4jXpPFQw0GAbJ--0" edge="1">
          <mxGeometry width="160" relative="1" as="geometry">
            <mxPoint x="210" y="373" as="sourcePoint" />
            <mxPoint x="310" y="271" as="targetPoint" />
          </mxGeometry>
        </mxCell>
        <mxCell id="zkfFHV4jXpPFQw0GAbJ--17" value="Trajet" style="swimlane;fontStyle=0;align=center;verticalAlign=top;childLayout=stackLayout;horizontal=1;startSize=26;horizontalStack=0;resizeParent=1;resizeLast=0;collapsible=1;marginBottom=0;rounded=0;shadow=0;strokeWidth=1;" parent="WIyWlLk6GJQsqaUBKTNV-1" vertex="1">
          <mxGeometry x="470" y="820" width="260" height="306" as="geometry">
            <mxRectangle x="550" y="140" width="160" height="26" as="alternateBounds" />
          </mxGeometry>
        </mxCell>
        <mxCell id="zkfFHV4jXpPFQw0GAbJ--18" value="id_Trajet (int,PK)" style="text;align=left;verticalAlign=top;spacingLeft=4;spacingRight=4;overflow=hidden;rotatable=0;points=[[0,0.5],[1,0.5]];portConstraint=eastwest;" parent="zkfFHV4jXpPFQw0GAbJ--17" vertex="1">
          <mxGeometry y="26" width="260" height="26" as="geometry" />
        </mxCell>
        <mxCell id="zkfFHV4jXpPFQw0GAbJ--19" value="chauffeur (Chauffeur, FK)" style="text;align=left;verticalAlign=top;spacingLeft=4;spacingRight=4;overflow=hidden;rotatable=0;points=[[0,0.5],[1,0.5]];portConstraint=eastwest;rounded=0;shadow=0;html=0;" parent="zkfFHV4jXpPFQw0GAbJ--17" vertex="1">
          <mxGeometry y="52" width="260" height="26" as="geometry" />
        </mxCell>
        <mxCell id="zkfFHV4jXpPFQw0GAbJ--20" value="client (Client , FK)" style="text;align=left;verticalAlign=top;spacingLeft=4;spacingRight=4;overflow=hidden;rotatable=0;points=[[0,0.5],[1,0.5]];portConstraint=eastwest;rounded=0;shadow=0;html=0;" parent="zkfFHV4jXpPFQw0GAbJ--17" vertex="1">
          <mxGeometry y="78" width="260" height="26" as="geometry" />
        </mxCell>
        <mxCell id="zkfFHV4jXpPFQw0GAbJ--21" value="Adresse_Depart (string)" style="text;align=left;verticalAlign=top;spacingLeft=4;spacingRight=4;overflow=hidden;rotatable=0;points=[[0,0.5],[1,0.5]];portConstraint=eastwest;rounded=0;shadow=0;html=0;" parent="zkfFHV4jXpPFQw0GAbJ--17" vertex="1">
          <mxGeometry y="104" width="260" height="26" as="geometry" />
        </mxCell>
        <mxCell id="zkfFHV4jXpPFQw0GAbJ--22" value="Adresse_Arrivee (String)" style="text;align=left;verticalAlign=top;spacingLeft=4;spacingRight=4;overflow=hidden;rotatable=0;points=[[0,0.5],[1,0.5]];portConstraint=eastwest;rounded=0;shadow=0;html=0;" parent="zkfFHV4jXpPFQw0GAbJ--17" vertex="1">
          <mxGeometry y="130" width="260" height="26" as="geometry" />
        </mxCell>
        <mxCell id="_-Q8mFuV5WVmhwefoIrQ-60" value="Prix (Float)" style="text;strokeColor=none;align=left;fillColor=none;verticalAlign=middle;rounded=0;spacingLeft=4;" vertex="1" parent="zkfFHV4jXpPFQw0GAbJ--17">
          <mxGeometry y="156" width="260" height="30" as="geometry" />
        </mxCell>
        <mxCell id="_-Q8mFuV5WVmhwefoIrQ-61" value="Statut (Enum : En attente , En Cours , Termine)" style="text;strokeColor=none;align=left;fillColor=none;verticalAlign=middle;rounded=0;spacingLeft=4;" vertex="1" parent="zkfFHV4jXpPFQw0GAbJ--17">
          <mxGeometry y="186" width="260" height="30" as="geometry" />
        </mxCell>
        <mxCell id="zkfFHV4jXpPFQw0GAbJ--23" value="" style="line;html=1;strokeWidth=1;align=left;verticalAlign=middle;spacingTop=-1;spacingLeft=3;spacingRight=3;rotatable=0;labelPosition=right;points=[];portConstraint=eastwest;" parent="zkfFHV4jXpPFQw0GAbJ--17" vertex="1">
          <mxGeometry y="216" width="260" height="8" as="geometry" />
        </mxCell>
        <mxCell id="zkfFHV4jXpPFQw0GAbJ--24" value="+ Demander_Trajet()" style="text;align=left;verticalAlign=top;spacingLeft=4;spacingRight=4;overflow=hidden;rotatable=0;points=[[0,0.5],[1,0.5]];portConstraint=eastwest;" parent="zkfFHV4jXpPFQw0GAbJ--17" vertex="1">
          <mxGeometry y="224" width="260" height="26" as="geometry" />
        </mxCell>
        <mxCell id="zkfFHV4jXpPFQw0GAbJ--25" value="+ Suivre_Trajet()" style="text;align=left;verticalAlign=top;spacingLeft=4;spacingRight=4;overflow=hidden;rotatable=0;points=[[0,0.5],[1,0.5]];portConstraint=eastwest;" parent="zkfFHV4jXpPFQw0GAbJ--17" vertex="1">
          <mxGeometry y="250" width="260" height="26" as="geometry" />
        </mxCell>
        <mxCell id="_-Q8mFuV5WVmhwefoIrQ-62" value="+ Treminer_Trajet()" style="text;strokeColor=none;align=left;fillColor=none;verticalAlign=middle;rounded=0;spacingLeft=4;" vertex="1" parent="zkfFHV4jXpPFQw0GAbJ--17">
          <mxGeometry y="276" width="260" height="30" as="geometry" />
        </mxCell>
        <mxCell id="_-Q8mFuV5WVmhwefoIrQ-16" value="Livreur" style="swimlane;fontStyle=1;align=center;verticalAlign=top;childLayout=stackLayout;horizontal=1;startSize=26;horizontalStack=0;resizeParent=1;resizeParentMax=0;resizeLast=0;collapsible=1;marginBottom=0;whiteSpace=wrap;html=1;" vertex="1" parent="WIyWlLk6GJQsqaUBKTNV-1">
          <mxGeometry x="-110" y="502" width="230" height="166" as="geometry" />
        </mxCell>
        <mxCell id="_-Q8mFuV5WVmhwefoIrQ-17" value="Type_Transport(Enum : Moto , Camion)" style="text;strokeColor=none;fillColor=none;align=left;verticalAlign=top;spacingLeft=4;spacingRight=4;overflow=hidden;rotatable=0;points=[[0,0.5],[1,0.5]];portConstraint=eastwest;whiteSpace=wrap;" vertex="1" parent="_-Q8mFuV5WVmhwefoIrQ-16">
          <mxGeometry y="26" width="230" height="26" as="geometry" />
        </mxCell>
        <mxCell id="_-Q8mFuV5WVmhwefoIrQ-20" value="Disponibilite (Bool)" style="text;strokeColor=none;align=left;fillColor=none;verticalAlign=middle;rounded=0;spacingLeft=4;whiteSpace=wrap;" vertex="1" parent="_-Q8mFuV5WVmhwefoIrQ-16">
          <mxGeometry y="52" width="230" height="20" as="geometry" />
        </mxCell>
        <mxCell id="_-Q8mFuV5WVmhwefoIrQ-21" value="Zone_Couverture (String) " style="text;strokeColor=none;align=left;fillColor=none;verticalAlign=middle;rounded=0;spacingLeft=4;" vertex="1" parent="_-Q8mFuV5WVmhwefoIrQ-16">
          <mxGeometry y="72" width="230" height="20" as="geometry" />
        </mxCell>
        <mxCell id="_-Q8mFuV5WVmhwefoIrQ-18" value="" style="line;strokeWidth=1;fillColor=none;align=left;verticalAlign=middle;spacingTop=-1;spacingLeft=3;spacingRight=3;rotatable=0;labelPosition=right;points=[];portConstraint=eastwest;strokeColor=inherit;" vertex="1" parent="_-Q8mFuV5WVmhwefoIrQ-16">
          <mxGeometry y="92" width="230" height="8" as="geometry" />
        </mxCell>
        <mxCell id="_-Q8mFuV5WVmhwefoIrQ-19" value="+ Accepter_Livraison()" style="text;strokeColor=none;fillColor=none;align=left;verticalAlign=top;spacingLeft=4;spacingRight=4;overflow=hidden;rotatable=0;points=[[0,0.5],[1,0.5]];portConstraint=eastwest;whiteSpace=wrap;html=1;" vertex="1" parent="_-Q8mFuV5WVmhwefoIrQ-16">
          <mxGeometry y="100" width="230" height="26" as="geometry" />
        </mxCell>
        <mxCell id="_-Q8mFuV5WVmhwefoIrQ-22" value="+ Scanner_QR()" style="text;strokeColor=none;align=left;fillColor=none;verticalAlign=middle;rounded=0;spacingLeft=4;" vertex="1" parent="_-Q8mFuV5WVmhwefoIrQ-16">
          <mxGeometry y="126" width="230" height="20" as="geometry" />
        </mxCell>
        <mxCell id="_-Q8mFuV5WVmhwefoIrQ-23" value="+ Capturer_Recu()" style="text;strokeColor=none;align=left;fillColor=none;verticalAlign=middle;rounded=0;spacingLeft=4;" vertex="1" parent="_-Q8mFuV5WVmhwefoIrQ-16">
          <mxGeometry y="146" width="230" height="20" as="geometry" />
        </mxCell>
        <mxCell id="_-Q8mFuV5WVmhwefoIrQ-29" value="" style="endArrow=block;endSize=10;endFill=0;shadow=0;strokeWidth=1;rounded=0;curved=0;edgeStyle=elbowEdgeStyle;elbow=vertical;" edge="1" parent="WIyWlLk6GJQsqaUBKTNV-1" source="_-Q8mFuV5WVmhwefoIrQ-16" target="zkfFHV4jXpPFQw0GAbJ--0">
          <mxGeometry width="160" relative="1" as="geometry">
            <mxPoint x="-440" y="520" as="sourcePoint" />
            <mxPoint x="15" y="400" as="targetPoint" />
            <Array as="points">
              <mxPoint x="-100" y="450" />
            </Array>
          </mxGeometry>
        </mxCell>
        <mxCell id="_-Q8mFuV5WVmhwefoIrQ-30" value="Administrateur" style="swimlane;fontStyle=1;align=center;verticalAlign=top;childLayout=stackLayout;horizontal=1;startSize=26;horizontalStack=0;resizeParent=1;resizeParentMax=0;resizeLast=0;collapsible=1;marginBottom=0;" vertex="1" parent="WIyWlLk6GJQsqaUBKTNV-1">
          <mxGeometry x="550" y="510" width="170" height="100" as="geometry" />
        </mxCell>
        <mxCell id="_-Q8mFuV5WVmhwefoIrQ-32" value="" style="line;strokeWidth=1;fillColor=none;align=left;verticalAlign=middle;spacingTop=-1;spacingLeft=3;spacingRight=3;rotatable=0;labelPosition=right;points=[];portConstraint=eastwest;strokeColor=inherit;" vertex="1" parent="_-Q8mFuV5WVmhwefoIrQ-30">
          <mxGeometry y="26" width="170" height="8" as="geometry" />
        </mxCell>
        <mxCell id="_-Q8mFuV5WVmhwefoIrQ-33" value="+ Gerer_Utilisateur()" style="text;strokeColor=none;fillColor=none;align=left;verticalAlign=top;spacingLeft=4;spacingRight=4;overflow=hidden;rotatable=0;points=[[0,0.5],[1,0.5]];portConstraint=eastwest;whiteSpace=wrap;html=1;" vertex="1" parent="_-Q8mFuV5WVmhwefoIrQ-30">
          <mxGeometry y="34" width="170" height="26" as="geometry" />
        </mxCell>
        <mxCell id="_-Q8mFuV5WVmhwefoIrQ-34" value="+ Valide_Livreur_Chauffeur()" style="text;strokeColor=none;align=left;fillColor=none;verticalAlign=middle;rounded=0;spacingLeft=4;" vertex="1" parent="_-Q8mFuV5WVmhwefoIrQ-30">
          <mxGeometry y="60" width="170" height="20" as="geometry" />
        </mxCell>
        <mxCell id="_-Q8mFuV5WVmhwefoIrQ-35" value="+ Surveiller_Transactions()" style="text;strokeColor=none;align=left;fillColor=none;verticalAlign=middle;rounded=0;spacingLeft=4;" vertex="1" parent="_-Q8mFuV5WVmhwefoIrQ-30">
          <mxGeometry y="80" width="170" height="20" as="geometry" />
        </mxCell>
        <mxCell id="_-Q8mFuV5WVmhwefoIrQ-36" value="" style="endArrow=block;endSize=10;endFill=0;shadow=0;strokeWidth=1;rounded=0;curved=0;edgeStyle=elbowEdgeStyle;elbow=vertical;" edge="1" parent="WIyWlLk6GJQsqaUBKTNV-1" source="_-Q8mFuV5WVmhwefoIrQ-30" target="zkfFHV4jXpPFQw0GAbJ--0">
          <mxGeometry width="160" relative="1" as="geometry">
            <mxPoint x="614" y="478" as="sourcePoint" />
            <mxPoint x="480" y="380" as="targetPoint" />
          </mxGeometry>
        </mxCell>
        <mxCell id="_-Q8mFuV5WVmhwefoIrQ-37" value="Commande" style="swimlane;fontStyle=1;align=center;verticalAlign=top;childLayout=stackLayout;horizontal=1;startSize=26;horizontalStack=0;resizeParent=1;resizeParentMax=0;resizeLast=0;collapsible=1;marginBottom=0;whiteSpace=wrap;html=1;" vertex="1" parent="WIyWlLk6GJQsqaUBKTNV-1">
          <mxGeometry x="-290" y="820" width="380" height="306" as="geometry" />
        </mxCell>
        <mxCell id="_-Q8mFuV5WVmhwefoIrQ-38" value="id_Commande (int,PK)" style="text;strokeColor=none;fillColor=none;align=left;verticalAlign=top;spacingLeft=4;spacingRight=4;overflow=hidden;rotatable=0;points=[[0,0.5],[1,0.5]];portConstraint=eastwest;whiteSpace=wrap;html=1;" vertex="1" parent="_-Q8mFuV5WVmhwefoIrQ-37">
          <mxGeometry y="26" width="380" height="26" as="geometry" />
        </mxCell>
        <mxCell id="_-Q8mFuV5WVmhwefoIrQ-41" value="client (Client,FK)" style="text;strokeColor=none;align=left;fillColor=none;verticalAlign=middle;rounded=0;spacingLeft=4;" vertex="1" parent="_-Q8mFuV5WVmhwefoIrQ-37">
          <mxGeometry y="52" width="380" height="20" as="geometry" />
        </mxCell>
        <mxCell id="_-Q8mFuV5WVmhwefoIrQ-42" value="livreur (Livreur,FK)" style="text;strokeColor=none;align=left;fillColor=none;verticalAlign=middle;rounded=0;spacingLeft=4;" vertex="1" parent="_-Q8mFuV5WVmhwefoIrQ-37">
          <mxGeometry y="72" width="380" height="20" as="geometry" />
        </mxCell>
        <mxCell id="_-Q8mFuV5WVmhwefoIrQ-43" value="Adreese_Depart (String)" style="text;strokeColor=none;align=left;fillColor=none;verticalAlign=middle;rounded=0;spacingLeft=4;" vertex="1" parent="_-Q8mFuV5WVmhwefoIrQ-37">
          <mxGeometry y="92" width="380" height="20" as="geometry" />
        </mxCell>
        <mxCell id="_-Q8mFuV5WVmhwefoIrQ-44" value="Adresse_Arrivee (String)" style="text;strokeColor=none;align=left;fillColor=none;verticalAlign=middle;rounded=0;spacingLeft=4;" vertex="1" parent="_-Q8mFuV5WVmhwefoIrQ-37">
          <mxGeometry y="112" width="380" height="20" as="geometry" />
        </mxCell>
        <mxCell id="_-Q8mFuV5WVmhwefoIrQ-45" value="Montant (Float)" style="text;strokeColor=none;align=left;fillColor=none;verticalAlign=middle;rounded=0;spacingLeft=4;" vertex="1" parent="_-Q8mFuV5WVmhwefoIrQ-37">
          <mxGeometry y="132" width="380" height="20" as="geometry" />
        </mxCell>
        <mxCell id="_-Q8mFuV5WVmhwefoIrQ-46" value="Methode_Paiment (Enum : Cash , App Bancaire)" style="text;strokeColor=none;align=left;fillColor=none;verticalAlign=middle;rounded=0;spacingLeft=4;" vertex="1" parent="_-Q8mFuV5WVmhwefoIrQ-37">
          <mxGeometry y="152" width="380" height="20" as="geometry" />
        </mxCell>
        <mxCell id="_-Q8mFuV5WVmhwefoIrQ-47" value="Statut (Enum : En attente , Acceptee , En cours , Terminee , Annulee)" style="text;strokeColor=none;align=left;fillColor=none;verticalAlign=middle;rounded=0;spacingLeft=4;" vertex="1" parent="_-Q8mFuV5WVmhwefoIrQ-37">
          <mxGeometry y="172" width="380" height="20" as="geometry" />
        </mxCell>
        <mxCell id="_-Q8mFuV5WVmhwefoIrQ-48" value="QR_Code (String)" style="text;strokeColor=none;align=left;fillColor=none;verticalAlign=middle;rounded=0;spacingLeft=4;" vertex="1" parent="_-Q8mFuV5WVmhwefoIrQ-37">
          <mxGeometry y="192" width="380" height="20" as="geometry" />
        </mxCell>
        <mxCell id="_-Q8mFuV5WVmhwefoIrQ-49" value="Recu_Transaction (String)" style="text;strokeColor=none;align=left;fillColor=none;verticalAlign=middle;rounded=0;spacingLeft=4;" vertex="1" parent="_-Q8mFuV5WVmhwefoIrQ-37">
          <mxGeometry y="212" width="380" height="20" as="geometry" />
        </mxCell>
        <mxCell id="_-Q8mFuV5WVmhwefoIrQ-39" value="" style="line;strokeWidth=1;fillColor=none;align=left;verticalAlign=middle;spacingTop=-1;spacingLeft=3;spacingRight=3;rotatable=0;labelPosition=right;points=[];portConstraint=eastwest;strokeColor=inherit;" vertex="1" parent="_-Q8mFuV5WVmhwefoIrQ-37">
          <mxGeometry y="232" width="380" height="8" as="geometry" />
        </mxCell>
        <mxCell id="_-Q8mFuV5WVmhwefoIrQ-40" value="+ Confirmer_Paiment()" style="text;strokeColor=none;fillColor=none;align=left;verticalAlign=top;spacingLeft=4;spacingRight=4;overflow=hidden;rotatable=0;points=[[0,0.5],[1,0.5]];portConstraint=eastwest;whiteSpace=wrap;html=1;" vertex="1" parent="_-Q8mFuV5WVmhwefoIrQ-37">
          <mxGeometry y="240" width="380" height="26" as="geometry" />
        </mxCell>
        <mxCell id="_-Q8mFuV5WVmhwefoIrQ-50" value="+ Suivre_Commande()" style="text;strokeColor=none;align=left;fillColor=none;verticalAlign=middle;rounded=0;spacingLeft=4;" vertex="1" parent="_-Q8mFuV5WVmhwefoIrQ-37">
          <mxGeometry y="266" width="380" height="20" as="geometry" />
        </mxCell>
        <mxCell id="_-Q8mFuV5WVmhwefoIrQ-51" value="+ Annuler_Commande()" style="text;strokeColor=none;align=left;fillColor=none;verticalAlign=middle;rounded=0;spacingLeft=4;" vertex="1" parent="_-Q8mFuV5WVmhwefoIrQ-37">
          <mxGeometry y="286" width="380" height="20" as="geometry" />
        </mxCell>
        <mxCell id="_-Q8mFuV5WVmhwefoIrQ-52" value="" style="endArrow=open;shadow=0;strokeWidth=1;rounded=0;curved=0;endFill=1;edgeStyle=elbowEdgeStyle;elbow=vertical;" edge="1" parent="WIyWlLk6GJQsqaUBKTNV-1" source="zkfFHV4jXpPFQw0GAbJ--6" target="_-Q8mFuV5WVmhwefoIrQ-37">
          <mxGeometry x="0.5" y="41" relative="1" as="geometry">
            <mxPoint x="170" y="760" as="sourcePoint" />
            <mxPoint x="290" y="730" as="targetPoint" />
            <mxPoint x="-40" y="32" as="offset" />
            <Array as="points">
              <mxPoint x="-510" y="830" />
            </Array>
          </mxGeometry>
        </mxCell>
        <mxCell id="_-Q8mFuV5WVmhwefoIrQ-53" value="*" style="resizable=0;align=left;verticalAlign=bottom;labelBackgroundColor=none;fontSize=12;" connectable="0" vertex="1" parent="_-Q8mFuV5WVmhwefoIrQ-52">
          <mxGeometry x="-1" relative="1" as="geometry">
            <mxPoint x="290" y="163" as="offset" />
          </mxGeometry>
        </mxCell>
        <mxCell id="_-Q8mFuV5WVmhwefoIrQ-55" value="Avoir" style="text;html=1;resizable=0;points=[];;align=center;verticalAlign=middle;labelBackgroundColor=none;rounded=0;shadow=0;strokeWidth=1;fontSize=12;" vertex="1" connectable="0" parent="_-Q8mFuV5WVmhwefoIrQ-52">
          <mxGeometry x="0.5" y="49" relative="1" as="geometry">
            <mxPoint x="-177" y="29" as="offset" />
          </mxGeometry>
        </mxCell>
        <mxCell id="_-Q8mFuV5WVmhwefoIrQ-56" value="" style="endArrow=open;shadow=0;strokeWidth=1;rounded=0;curved=0;endFill=1;edgeStyle=elbowEdgeStyle;elbow=vertical;" edge="1" parent="WIyWlLk6GJQsqaUBKTNV-1" source="_-Q8mFuV5WVmhwefoIrQ-16" target="_-Q8mFuV5WVmhwefoIrQ-37">
          <mxGeometry x="0.5" y="41" relative="1" as="geometry">
            <mxPoint x="-60" y="710" as="sourcePoint" />
            <mxPoint x="-60" y="850" as="targetPoint" />
            <mxPoint x="-40" y="32" as="offset" />
            <Array as="points">
              <mxPoint x="-100" y="790" />
            </Array>
          </mxGeometry>
        </mxCell>
        <mxCell id="_-Q8mFuV5WVmhwefoIrQ-57" value="*" style="resizable=0;align=left;verticalAlign=bottom;labelBackgroundColor=none;fontSize=12;" connectable="0" vertex="1" parent="_-Q8mFuV5WVmhwefoIrQ-56">
          <mxGeometry x="-1" relative="1" as="geometry">
            <mxPoint x="10" y="24" as="offset" />
          </mxGeometry>
        </mxCell>
        <mxCell id="_-Q8mFuV5WVmhwefoIrQ-58" value="1" style="resizable=0;align=right;verticalAlign=bottom;labelBackgroundColor=none;fontSize=12;" connectable="0" vertex="1" parent="_-Q8mFuV5WVmhwefoIrQ-56">
          <mxGeometry x="1" relative="1" as="geometry">
            <mxPoint x="-10" y="-3" as="offset" />
          </mxGeometry>
        </mxCell>
        <mxCell id="_-Q8mFuV5WVmhwefoIrQ-59" value="Associee" style="text;html=1;resizable=0;points=[];;align=center;verticalAlign=middle;labelBackgroundColor=none;rounded=0;shadow=0;strokeWidth=1;fontSize=12;" vertex="1" connectable="0" parent="_-Q8mFuV5WVmhwefoIrQ-56">
          <mxGeometry x="0.5" y="49" relative="1" as="geometry">
            <mxPoint x="-19" y="-32" as="offset" />
          </mxGeometry>
        </mxCell>
        <mxCell id="_-Q8mFuV5WVmhwefoIrQ-63" value="" style="endArrow=open;shadow=0;strokeWidth=1;rounded=0;curved=0;endFill=1;edgeStyle=elbowEdgeStyle;elbow=vertical;" edge="1" parent="WIyWlLk6GJQsqaUBKTNV-1">
          <mxGeometry x="0.5" y="41" relative="1" as="geometry">
            <mxPoint x="480" y="680" as="sourcePoint" />
            <mxPoint x="666" y="820" as="targetPoint" />
            <mxPoint x="-40" y="32" as="offset" />
          </mxGeometry>
        </mxCell>
        <mxCell id="_-Q8mFuV5WVmhwefoIrQ-64" value="*" style="resizable=0;align=left;verticalAlign=bottom;labelBackgroundColor=none;fontSize=12;" connectable="0" vertex="1" parent="_-Q8mFuV5WVmhwefoIrQ-63">
          <mxGeometry x="-1" relative="1" as="geometry">
            <mxPoint x="196" y="140" as="offset" />
          </mxGeometry>
        </mxCell>
        <mxCell id="_-Q8mFuV5WVmhwefoIrQ-65" value="1" style="resizable=0;align=right;verticalAlign=bottom;labelBackgroundColor=none;fontSize=12;" connectable="0" vertex="1" parent="_-Q8mFuV5WVmhwefoIrQ-63">
          <mxGeometry x="1" relative="1" as="geometry">
            <mxPoint x="-170" y="-120" as="offset" />
          </mxGeometry>
        </mxCell>
        <mxCell id="_-Q8mFuV5WVmhwefoIrQ-66" value="Gerer" style="text;html=1;resizable=0;points=[];;align=center;verticalAlign=middle;labelBackgroundColor=none;rounded=0;shadow=0;strokeWidth=1;fontSize=12;" vertex="1" connectable="0" parent="_-Q8mFuV5WVmhwefoIrQ-63">
          <mxGeometry x="0.5" y="49" relative="1" as="geometry">
            <mxPoint x="-89" y="39" as="offset" />
          </mxGeometry>
        </mxCell>
        <mxCell id="_-Q8mFuV5WVmhwefoIrQ-68" value="Vehicule" style="swimlane;fontStyle=1;align=center;verticalAlign=top;childLayout=stackLayout;horizontal=1;startSize=26;horizontalStack=0;resizeParent=1;resizeParentMax=0;resizeLast=0;collapsible=1;marginBottom=0;whiteSpace=wrap;html=1;" vertex="1" parent="WIyWlLk6GJQsqaUBKTNV-1">
          <mxGeometry x="200" y="920" width="190" height="206" as="geometry" />
        </mxCell>
        <mxCell id="_-Q8mFuV5WVmhwefoIrQ-69" value="id_Vehicule (int , PK)" style="text;strokeColor=none;fillColor=none;align=left;verticalAlign=top;spacingLeft=4;spacingRight=4;overflow=hidden;rotatable=0;points=[[0,0.5],[1,0.5]];portConstraint=eastwest;whiteSpace=wrap;html=1;" vertex="1" parent="_-Q8mFuV5WVmhwefoIrQ-68">
          <mxGeometry y="26" width="190" height="26" as="geometry" />
        </mxCell>
        <mxCell id="_-Q8mFuV5WVmhwefoIrQ-72" value="chauffeur (Chauffeur , FK)" style="text;strokeColor=none;align=left;fillColor=none;verticalAlign=middle;rounded=0;spacingLeft=4;" vertex="1" parent="_-Q8mFuV5WVmhwefoIrQ-68">
          <mxGeometry y="52" width="190" height="30" as="geometry" />
        </mxCell>
        <mxCell id="_-Q8mFuV5WVmhwefoIrQ-74" value="Marque (String)" style="text;strokeColor=none;align=left;fillColor=none;verticalAlign=middle;rounded=0;spacingLeft=4;" vertex="1" parent="_-Q8mFuV5WVmhwefoIrQ-68">
          <mxGeometry y="82" width="190" height="30" as="geometry" />
        </mxCell>
        <mxCell id="_-Q8mFuV5WVmhwefoIrQ-75" value="Matricule (String)" style="text;strokeColor=none;align=left;fillColor=none;verticalAlign=middle;rounded=0;spacingLeft=4;" vertex="1" parent="_-Q8mFuV5WVmhwefoIrQ-68">
          <mxGeometry y="112" width="190" height="30" as="geometry" />
        </mxCell>
        <mxCell id="_-Q8mFuV5WVmhwefoIrQ-76" value="Type (Enum : Moto,Taxi,Camion)" style="text;strokeColor=none;align=left;fillColor=none;verticalAlign=middle;rounded=0;spacingLeft=4;" vertex="1" parent="_-Q8mFuV5WVmhwefoIrQ-68">
          <mxGeometry y="142" width="190" height="30" as="geometry" />
        </mxCell>
        <mxCell id="_-Q8mFuV5WVmhwefoIrQ-70" value="" style="line;strokeWidth=1;fillColor=none;align=left;verticalAlign=middle;spacingTop=-1;spacingLeft=3;spacingRight=3;rotatable=0;labelPosition=right;points=[];portConstraint=eastwest;strokeColor=inherit;" vertex="1" parent="_-Q8mFuV5WVmhwefoIrQ-68">
          <mxGeometry y="172" width="190" height="8" as="geometry" />
        </mxCell>
        <mxCell id="_-Q8mFuV5WVmhwefoIrQ-71" value="+ Disponible()" style="text;strokeColor=none;fillColor=none;align=left;verticalAlign=top;spacingLeft=4;spacingRight=4;overflow=hidden;rotatable=0;points=[[0,0.5],[1,0.5]];portConstraint=eastwest;whiteSpace=wrap;html=1;" vertex="1" parent="_-Q8mFuV5WVmhwefoIrQ-68">
          <mxGeometry y="180" width="190" height="26" as="geometry" />
        </mxCell>
        <mxCell id="_-Q8mFuV5WVmhwefoIrQ-77" value="" style="endArrow=open;shadow=0;strokeWidth=1;rounded=0;curved=0;endFill=1;edgeStyle=elbowEdgeStyle;elbow=vertical;" edge="1" parent="WIyWlLk6GJQsqaUBKTNV-1" source="zkfFHV4jXpPFQw0GAbJ--13" target="_-Q8mFuV5WVmhwefoIrQ-68">
          <mxGeometry x="0.5" y="41" relative="1" as="geometry">
            <mxPoint x="160" y="670" as="sourcePoint" />
            <mxPoint x="346" y="810" as="targetPoint" />
            <mxPoint x="-40" y="32" as="offset" />
            <Array as="points">
              <mxPoint x="480" y="750" />
            </Array>
          </mxGeometry>
        </mxCell>
        <mxCell id="_-Q8mFuV5WVmhwefoIrQ-78" value="*" style="resizable=0;align=left;verticalAlign=bottom;labelBackgroundColor=none;fontSize=12;" connectable="0" vertex="1" parent="_-Q8mFuV5WVmhwefoIrQ-77">
          <mxGeometry x="-1" relative="1" as="geometry">
            <mxPoint x="196" y="140" as="offset" />
          </mxGeometry>
        </mxCell>
        <mxCell id="_-Q8mFuV5WVmhwefoIrQ-80" value="Possede" style="text;html=1;resizable=0;points=[];;align=center;verticalAlign=middle;labelBackgroundColor=none;rounded=0;shadow=0;strokeWidth=1;fontSize=12;" vertex="1" connectable="0" parent="_-Q8mFuV5WVmhwefoIrQ-77">
          <mxGeometry x="0.5" y="49" relative="1" as="geometry">
            <mxPoint x="-14" y="10" as="offset" />
          </mxGeometry>
        </mxCell>
        <mxCell id="_-Q8mFuV5WVmhwefoIrQ-81" value="*" style="resizable=0;align=left;verticalAlign=bottom;labelBackgroundColor=none;fontSize=12;" connectable="0" vertex="1" parent="WIyWlLk6GJQsqaUBKTNV-1">
          <mxGeometry x="310" y="910" as="geometry" />
        </mxCell>
        <mxCell id="_-Q8mFuV5WVmhwefoIrQ-82" value="Paiement" style="swimlane;fontStyle=1;align=center;verticalAlign=top;childLayout=stackLayout;horizontal=1;startSize=26;horizontalStack=0;resizeParent=1;resizeParentMax=0;resizeLast=0;collapsible=1;marginBottom=0;whiteSpace=wrap;html=1;" vertex="1" parent="WIyWlLk6GJQsqaUBKTNV-1">
          <mxGeometry x="310" y="126" width="170" height="266" as="geometry" />
        </mxCell>
        <mxCell id="_-Q8mFuV5WVmhwefoIrQ-83" value="id_paiement (int, PK)" style="text;strokeColor=none;fillColor=none;align=left;verticalAlign=top;spacingLeft=4;spacingRight=4;overflow=hidden;rotatable=0;points=[[0,0.5],[1,0.5]];portConstraint=eastwest;whiteSpace=wrap;html=1;" vertex="1" parent="_-Q8mFuV5WVmhwefoIrQ-82">
          <mxGeometry y="26" width="170" height="26" as="geometry" />
        </mxCell>
        <mxCell id="_-Q8mFuV5WVmhwefoIrQ-86" value="commande (Commande , FK)" style="text;strokeColor=none;align=left;fillColor=none;verticalAlign=middle;rounded=0;spacingLeft=4;" vertex="1" parent="_-Q8mFuV5WVmhwefoIrQ-82">
          <mxGeometry y="52" width="170" height="30" as="geometry" />
        </mxCell>
        <mxCell id="_-Q8mFuV5WVmhwefoIrQ-87" value="Methode (Enum : Cash , App)" style="text;strokeColor=none;align=left;fillColor=none;verticalAlign=middle;rounded=0;spacingLeft=4;" vertex="1" parent="_-Q8mFuV5WVmhwefoIrQ-82">
          <mxGeometry y="82" width="170" height="30" as="geometry" />
        </mxCell>
        <mxCell id="_-Q8mFuV5WVmhwefoIrQ-88" value="Statut (Enum : En Attente , Confirme , Echoue)" style="text;strokeColor=none;align=left;fillColor=none;verticalAlign=middle;rounded=0;spacingLeft=4;whiteSpace=wrap;" vertex="1" parent="_-Q8mFuV5WVmhwefoIrQ-82">
          <mxGeometry y="112" width="170" height="30" as="geometry" />
        </mxCell>
        <mxCell id="_-Q8mFuV5WVmhwefoIrQ-91" value="Recu (String)" style="text;strokeColor=none;align=left;fillColor=none;verticalAlign=middle;rounded=0;spacingLeft=4;" vertex="1" parent="_-Q8mFuV5WVmhwefoIrQ-82">
          <mxGeometry y="142" width="170" height="30" as="geometry" />
        </mxCell>
        <mxCell id="_-Q8mFuV5WVmhwefoIrQ-84" value="" style="line;strokeWidth=1;fillColor=none;align=left;verticalAlign=middle;spacingTop=-1;spacingLeft=3;spacingRight=3;rotatable=0;labelPosition=right;points=[];portConstraint=eastwest;strokeColor=inherit;" vertex="1" parent="_-Q8mFuV5WVmhwefoIrQ-82">
          <mxGeometry y="172" width="170" height="8" as="geometry" />
        </mxCell>
        <mxCell id="_-Q8mFuV5WVmhwefoIrQ-85" value="+ Effectuer_Paiement()" style="text;strokeColor=none;fillColor=none;align=left;verticalAlign=top;spacingLeft=4;spacingRight=4;overflow=hidden;rotatable=0;points=[[0,0.5],[1,0.5]];portConstraint=eastwest;whiteSpace=wrap;html=1;" vertex="1" parent="_-Q8mFuV5WVmhwefoIrQ-82">
          <mxGeometry y="180" width="170" height="26" as="geometry" />
        </mxCell>
        <mxCell id="_-Q8mFuV5WVmhwefoIrQ-89" value="+ Verifier_Paiement()" style="text;strokeColor=none;align=left;fillColor=none;verticalAlign=middle;rounded=0;spacingLeft=4;" vertex="1" parent="_-Q8mFuV5WVmhwefoIrQ-82">
          <mxGeometry y="206" width="170" height="30" as="geometry" />
        </mxCell>
        <mxCell id="_-Q8mFuV5WVmhwefoIrQ-90" value="+ Rembourser_Paiement()" style="text;strokeColor=none;align=left;fillColor=none;verticalAlign=middle;rounded=0;spacingLeft=4;" vertex="1" parent="_-Q8mFuV5WVmhwefoIrQ-82">
          <mxGeometry y="236" width="170" height="30" as="geometry" />
        </mxCell>
        <mxCell id="_-Q8mFuV5WVmhwefoIrQ-92" value="Notification" style="swimlane;fontStyle=1;align=center;verticalAlign=top;childLayout=stackLayout;horizontal=1;startSize=26;horizontalStack=0;resizeParent=1;resizeParentMax=0;resizeLast=0;collapsible=1;marginBottom=0;whiteSpace=wrap;html=1;" vertex="1" parent="WIyWlLk6GJQsqaUBKTNV-1">
          <mxGeometry x="-460" y="585" width="160" height="206" as="geometry" />
        </mxCell>
        <mxCell id="_-Q8mFuV5WVmhwefoIrQ-93" value="id_notification (int, PK)" style="text;strokeColor=none;fillColor=none;align=left;verticalAlign=top;spacingLeft=4;spacingRight=4;overflow=hidden;rotatable=0;points=[[0,0.5],[1,0.5]];portConstraint=eastwest;whiteSpace=wrap;html=1;" vertex="1" parent="_-Q8mFuV5WVmhwefoIrQ-92">
          <mxGeometry y="26" width="160" height="26" as="geometry" />
        </mxCell>
        <mxCell id="_-Q8mFuV5WVmhwefoIrQ-97" value="utilisateur (Utilisateur , FK)" style="text;strokeColor=none;align=left;fillColor=none;verticalAlign=middle;rounded=0;spacingLeft=4;" vertex="1" parent="_-Q8mFuV5WVmhwefoIrQ-92">
          <mxGeometry y="52" width="160" height="30" as="geometry" />
        </mxCell>
        <mxCell id="_-Q8mFuV5WVmhwefoIrQ-98" value="Message (String)" style="text;strokeColor=none;align=left;fillColor=none;verticalAlign=middle;rounded=0;spacingLeft=4;" vertex="1" parent="_-Q8mFuV5WVmhwefoIrQ-92">
          <mxGeometry y="82" width="160" height="30" as="geometry" />
        </mxCell>
        <mxCell id="_-Q8mFuV5WVmhwefoIrQ-99" value="Date_Envoi (DateTime)" style="text;strokeColor=none;align=left;fillColor=none;verticalAlign=middle;rounded=0;spacingLeft=4;" vertex="1" parent="_-Q8mFuV5WVmhwefoIrQ-92">
          <mxGeometry y="112" width="160" height="30" as="geometry" />
        </mxCell>
        <mxCell id="_-Q8mFuV5WVmhwefoIrQ-100" value="Statut (Enum : Lu , Non Lu)" style="text;strokeColor=none;align=left;fillColor=none;verticalAlign=middle;rounded=0;spacingLeft=4;" vertex="1" parent="_-Q8mFuV5WVmhwefoIrQ-92">
          <mxGeometry y="142" width="160" height="30" as="geometry" />
        </mxCell>
        <mxCell id="_-Q8mFuV5WVmhwefoIrQ-94" value="" style="line;strokeWidth=1;fillColor=none;align=left;verticalAlign=middle;spacingTop=-1;spacingLeft=3;spacingRight=3;rotatable=0;labelPosition=right;points=[];portConstraint=eastwest;strokeColor=inherit;" vertex="1" parent="_-Q8mFuV5WVmhwefoIrQ-92">
          <mxGeometry y="172" width="160" height="8" as="geometry" />
        </mxCell>
        <mxCell id="_-Q8mFuV5WVmhwefoIrQ-95" value="+ Envoyer()" style="text;strokeColor=none;fillColor=none;align=left;verticalAlign=top;spacingLeft=4;spacingRight=4;overflow=hidden;rotatable=0;points=[[0,0.5],[1,0.5]];portConstraint=eastwest;whiteSpace=wrap;html=1;" vertex="1" parent="_-Q8mFuV5WVmhwefoIrQ-92">
          <mxGeometry y="180" width="160" height="26" as="geometry" />
        </mxCell>
        <mxCell id="_-Q8mFuV5WVmhwefoIrQ-101" value="Colis" style="swimlane;fontStyle=1;align=center;verticalAlign=top;childLayout=stackLayout;horizontal=1;startSize=26;horizontalStack=0;resizeParent=1;resizeParentMax=0;resizeLast=0;collapsible=1;marginBottom=0;whiteSpace=wrap;html=1;" vertex="1" parent="WIyWlLk6GJQsqaUBKTNV-1">
          <mxGeometry x="-740" y="63" width="260" height="356" as="geometry" />
        </mxCell>
        <mxCell id="_-Q8mFuV5WVmhwefoIrQ-102" value="id_Colis (int , PK)" style="text;strokeColor=none;fillColor=none;align=left;verticalAlign=top;spacingLeft=4;spacingRight=4;overflow=hidden;rotatable=0;points=[[0,0.5],[1,0.5]];portConstraint=eastwest;whiteSpace=wrap;html=1;" vertex="1" parent="_-Q8mFuV5WVmhwefoIrQ-101">
          <mxGeometry y="26" width="260" height="26" as="geometry" />
        </mxCell>
        <mxCell id="_-Q8mFuV5WVmhwefoIrQ-105" value="Expediteur (Client , FK)" style="text;strokeColor=none;align=left;fillColor=none;verticalAlign=middle;rounded=0;spacingLeft=4;" vertex="1" parent="_-Q8mFuV5WVmhwefoIrQ-101">
          <mxGeometry y="52" width="260" height="30" as="geometry" />
        </mxCell>
        <mxCell id="_-Q8mFuV5WVmhwefoIrQ-106" value="Destinateur (Client , FK)" style="text;strokeColor=none;align=left;fillColor=none;verticalAlign=middle;rounded=0;spacingLeft=4;" vertex="1" parent="_-Q8mFuV5WVmhwefoIrQ-101">
          <mxGeometry y="82" width="260" height="30" as="geometry" />
        </mxCell>
        <mxCell id="_-Q8mFuV5WVmhwefoIrQ-108" value="Poids (Float)" style="text;strokeColor=none;align=left;fillColor=none;verticalAlign=middle;rounded=0;spacingLeft=4;" vertex="1" parent="_-Q8mFuV5WVmhwefoIrQ-101">
          <mxGeometry y="112" width="260" height="30" as="geometry" />
        </mxCell>
        <mxCell id="_-Q8mFuV5WVmhwefoIrQ-107" value="Description (String)" style="text;strokeColor=none;align=left;fillColor=none;verticalAlign=middle;rounded=0;spacingLeft=4;" vertex="1" parent="_-Q8mFuV5WVmhwefoIrQ-101">
          <mxGeometry y="142" width="260" height="30" as="geometry" />
        </mxCell>
        <mxCell id="_-Q8mFuV5WVmhwefoIrQ-109" value="Dimensions (String)" style="text;strokeColor=none;align=left;fillColor=none;verticalAlign=middle;rounded=0;spacingLeft=4;" vertex="1" parent="_-Q8mFuV5WVmhwefoIrQ-101">
          <mxGeometry y="172" width="260" height="30" as="geometry" />
        </mxCell>
        <mxCell id="_-Q8mFuV5WVmhwefoIrQ-110" value="Statut (Enum : En attente , En Transit , Livre)" style="text;strokeColor=none;align=left;fillColor=none;verticalAlign=middle;rounded=0;spacingLeft=4;" vertex="1" parent="_-Q8mFuV5WVmhwefoIrQ-101">
          <mxGeometry y="202" width="260" height="30" as="geometry" />
        </mxCell>
        <mxCell id="_-Q8mFuV5WVmhwefoIrQ-111" value="Montant (Float)" style="text;strokeColor=none;align=left;fillColor=none;verticalAlign=middle;rounded=0;spacingLeft=4;" vertex="1" parent="_-Q8mFuV5WVmhwefoIrQ-101">
          <mxGeometry y="232" width="260" height="30" as="geometry" />
        </mxCell>
        <mxCell id="_-Q8mFuV5WVmhwefoIrQ-103" value="" style="line;strokeWidth=1;fillColor=none;align=left;verticalAlign=middle;spacingTop=-1;spacingLeft=3;spacingRight=3;rotatable=0;labelPosition=right;points=[];portConstraint=eastwest;strokeColor=inherit;" vertex="1" parent="_-Q8mFuV5WVmhwefoIrQ-101">
          <mxGeometry y="262" width="260" height="8" as="geometry" />
        </mxCell>
        <mxCell id="_-Q8mFuV5WVmhwefoIrQ-104" value="+ Afficher_Annonce_Transport()" style="text;strokeColor=none;fillColor=none;align=left;verticalAlign=top;spacingLeft=4;spacingRight=4;overflow=hidden;rotatable=0;points=[[0,0.5],[1,0.5]];portConstraint=eastwest;whiteSpace=wrap;html=1;" vertex="1" parent="_-Q8mFuV5WVmhwefoIrQ-101">
          <mxGeometry y="270" width="260" height="26" as="geometry" />
        </mxCell>
        <mxCell id="_-Q8mFuV5WVmhwefoIrQ-112" value="+ Valider_Reception()" style="text;strokeColor=none;align=left;fillColor=none;verticalAlign=middle;rounded=0;spacingLeft=4;" vertex="1" parent="_-Q8mFuV5WVmhwefoIrQ-101">
          <mxGeometry y="296" width="260" height="30" as="geometry" />
        </mxCell>
        <mxCell id="_-Q8mFuV5WVmhwefoIrQ-113" value="+ Contacter_Transporteur()" style="text;strokeColor=none;align=left;fillColor=none;verticalAlign=middle;rounded=0;spacingLeft=4;" vertex="1" parent="_-Q8mFuV5WVmhwefoIrQ-101">
          <mxGeometry y="326" width="260" height="30" as="geometry" />
        </mxCell>
        <mxCell id="_-Q8mFuV5WVmhwefoIrQ-114" value="Voyage" style="swimlane;fontStyle=1;align=center;verticalAlign=top;childLayout=stackLayout;horizontal=1;startSize=26;horizontalStack=0;resizeParent=1;resizeParentMax=0;resizeLast=0;collapsible=1;marginBottom=0;whiteSpace=wrap;html=1;" vertex="1" parent="WIyWlLk6GJQsqaUBKTNV-1">
          <mxGeometry x="-710" y="840" width="180" height="296" as="geometry" />
        </mxCell>
        <mxCell id="_-Q8mFuV5WVmhwefoIrQ-115" value="id_Voyage (int, PK)" style="text;strokeColor=none;fillColor=none;align=left;verticalAlign=top;spacingLeft=4;spacingRight=4;overflow=hidden;rotatable=0;points=[[0,0.5],[1,0.5]];portConstraint=eastwest;whiteSpace=wrap;html=1;" vertex="1" parent="_-Q8mFuV5WVmhwefoIrQ-114">
          <mxGeometry y="26" width="180" height="26" as="geometry" />
        </mxCell>
        <mxCell id="_-Q8mFuV5WVmhwefoIrQ-118" value="Voyageur (Client , FK)" style="text;strokeColor=none;align=left;fillColor=none;verticalAlign=middle;rounded=0;spacingLeft=4;" vertex="1" parent="_-Q8mFuV5WVmhwefoIrQ-114">
          <mxGeometry y="52" width="180" height="30" as="geometry" />
        </mxCell>
        <mxCell id="_-Q8mFuV5WVmhwefoIrQ-119" value="Destination (String)" style="text;strokeColor=none;align=left;fillColor=none;verticalAlign=middle;rounded=0;spacingLeft=4;" vertex="1" parent="_-Q8mFuV5WVmhwefoIrQ-114">
          <mxGeometry y="82" width="180" height="30" as="geometry" />
        </mxCell>
        <mxCell id="_-Q8mFuV5WVmhwefoIrQ-120" value="Date_Depart (DateTime)" style="text;strokeColor=none;align=left;fillColor=none;verticalAlign=middle;rounded=0;spacingLeft=4;" vertex="1" parent="_-Q8mFuV5WVmhwefoIrQ-114">
          <mxGeometry y="112" width="180" height="30" as="geometry" />
        </mxCell>
        <mxCell id="_-Q8mFuV5WVmhwefoIrQ-121" value="Date_Arrivee (DateTime)" style="text;strokeColor=none;align=left;fillColor=none;verticalAlign=middle;rounded=0;spacingLeft=4;" vertex="1" parent="_-Q8mFuV5WVmhwefoIrQ-114">
          <mxGeometry y="142" width="180" height="30" as="geometry" />
        </mxCell>
        <mxCell id="_-Q8mFuV5WVmhwefoIrQ-122" value="Poids_Disponible (Float)" style="text;strokeColor=none;align=left;fillColor=none;verticalAlign=middle;rounded=0;spacingLeft=4;" vertex="1" parent="_-Q8mFuV5WVmhwefoIrQ-114">
          <mxGeometry y="172" width="180" height="30" as="geometry" />
        </mxCell>
        <mxCell id="_-Q8mFuV5WVmhwefoIrQ-123" value="Tarif_Transport (Float)" style="text;strokeColor=none;align=left;fillColor=none;verticalAlign=middle;rounded=0;spacingLeft=4;" vertex="1" parent="_-Q8mFuV5WVmhwefoIrQ-114">
          <mxGeometry y="202" width="180" height="30" as="geometry" />
        </mxCell>
        <mxCell id="_-Q8mFuV5WVmhwefoIrQ-116" value="" style="line;strokeWidth=1;fillColor=none;align=left;verticalAlign=middle;spacingTop=-1;spacingLeft=3;spacingRight=3;rotatable=0;labelPosition=right;points=[];portConstraint=eastwest;strokeColor=inherit;" vertex="1" parent="_-Q8mFuV5WVmhwefoIrQ-114">
          <mxGeometry y="232" width="180" height="8" as="geometry" />
        </mxCell>
        <mxCell id="_-Q8mFuV5WVmhwefoIrQ-117" value="+ Proposer_Transport_Colis()" style="text;strokeColor=none;fillColor=none;align=left;verticalAlign=top;spacingLeft=4;spacingRight=4;overflow=hidden;rotatable=0;points=[[0,0.5],[1,0.5]];portConstraint=eastwest;whiteSpace=wrap;html=1;" vertex="1" parent="_-Q8mFuV5WVmhwefoIrQ-114">
          <mxGeometry y="240" width="180" height="26" as="geometry" />
        </mxCell>
        <mxCell id="_-Q8mFuV5WVmhwefoIrQ-124" value="+ Valider_Livraison()" style="text;strokeColor=none;align=left;fillColor=none;verticalAlign=middle;rounded=0;spacingLeft=4;" vertex="1" parent="_-Q8mFuV5WVmhwefoIrQ-114">
          <mxGeometry y="266" width="180" height="30" as="geometry" />
        </mxCell>
        <mxCell id="_-Q8mFuV5WVmhwefoIrQ-125" value="1" style="resizable=0;align=left;verticalAlign=bottom;labelBackgroundColor=none;fontSize=12;" connectable="0" vertex="1" parent="WIyWlLk6GJQsqaUBKTNV-1">
          <mxGeometry x="-470" y="710" as="geometry">
            <mxPoint x="-148" y="-1" as="offset" />
          </mxGeometry>
        </mxCell>
        <mxCell id="_-Q8mFuV5WVmhwefoIrQ-126" value="" style="endArrow=open;shadow=0;strokeWidth=1;rounded=0;curved=0;endFill=1;edgeStyle=elbowEdgeStyle;elbow=vertical;" edge="1" parent="WIyWlLk6GJQsqaUBKTNV-1" source="_-Q8mFuV5WVmhwefoIrQ-92" target="_-Q8mFuV5WVmhwefoIrQ-23">
          <mxGeometry x="0.5" y="41" relative="1" as="geometry">
            <mxPoint x="-260" y="650" as="sourcePoint" />
            <mxPoint x="-230" y="720" as="targetPoint" />
            <mxPoint x="-40" y="32" as="offset" />
            <Array as="points">
              <mxPoint x="-270" y="658" />
            </Array>
          </mxGeometry>
        </mxCell>
        <mxCell id="_-Q8mFuV5WVmhwefoIrQ-127" value="*" style="resizable=0;align=left;verticalAlign=bottom;labelBackgroundColor=none;fontSize=12;" connectable="0" vertex="1" parent="_-Q8mFuV5WVmhwefoIrQ-126">
          <mxGeometry x="-1" relative="1" as="geometry">
            <mxPoint x="10" y="24" as="offset" />
          </mxGeometry>
        </mxCell>
        <mxCell id="_-Q8mFuV5WVmhwefoIrQ-128" value="1" style="resizable=0;align=right;verticalAlign=bottom;labelBackgroundColor=none;fontSize=12;" connectable="0" vertex="1" parent="_-Q8mFuV5WVmhwefoIrQ-126">
          <mxGeometry x="1" relative="1" as="geometry">
            <mxPoint x="-10" y="-3" as="offset" />
          </mxGeometry>
        </mxCell>
        <mxCell id="_-Q8mFuV5WVmhwefoIrQ-129" value="&lt;font style=&quot;font-size: 12px;&quot;&gt;Recevoire&lt;/font&gt;" style="text;html=1;resizable=0;points=[];;align=center;verticalAlign=middle;labelBackgroundColor=none;rounded=0;shadow=0;strokeWidth=1;fontSize=10;" vertex="1" connectable="0" parent="_-Q8mFuV5WVmhwefoIrQ-126">
          <mxGeometry x="0.5" y="49" relative="1" as="geometry">
            <mxPoint x="-42" y="41" as="offset" />
          </mxGeometry>
        </mxCell>
        <mxCell id="_-Q8mFuV5WVmhwefoIrQ-130" value="" style="endArrow=open;shadow=0;strokeWidth=1;rounded=0;curved=0;endFill=1;edgeStyle=elbowEdgeStyle;elbow=vertical;" edge="1" parent="WIyWlLk6GJQsqaUBKTNV-1" source="zkfFHV4jXpPFQw0GAbJ--6" target="_-Q8mFuV5WVmhwefoIrQ-92">
          <mxGeometry x="0.5" y="41" relative="1" as="geometry">
            <mxPoint x="-580" y="640" as="sourcePoint" />
            <mxPoint x="-495" y="640" as="targetPoint" />
            <mxPoint x="-40" y="32" as="offset" />
            <Array as="points">
              <mxPoint x="-490" y="490" />
            </Array>
          </mxGeometry>
        </mxCell>
        <mxCell id="_-Q8mFuV5WVmhwefoIrQ-131" value="*" style="resizable=0;align=left;verticalAlign=bottom;labelBackgroundColor=none;fontSize=12;" connectable="0" vertex="1" parent="_-Q8mFuV5WVmhwefoIrQ-130">
          <mxGeometry x="-1" relative="1" as="geometry">
            <mxPoint x="230" y="68" as="offset" />
          </mxGeometry>
        </mxCell>
        <mxCell id="_-Q8mFuV5WVmhwefoIrQ-132" value="1" style="resizable=0;align=right;verticalAlign=bottom;labelBackgroundColor=none;fontSize=12;" connectable="0" vertex="1" parent="_-Q8mFuV5WVmhwefoIrQ-130">
          <mxGeometry x="1" relative="1" as="geometry">
            <mxPoint x="-200" y="-75" as="offset" />
          </mxGeometry>
        </mxCell>
        <mxCell id="_-Q8mFuV5WVmhwefoIrQ-133" value="Recevoire" style="text;html=1;resizable=0;points=[];;align=center;verticalAlign=middle;labelBackgroundColor=none;rounded=0;shadow=0;strokeWidth=1;fontSize=12;" vertex="1" connectable="0" parent="_-Q8mFuV5WVmhwefoIrQ-130">
          <mxGeometry x="0.5" y="49" relative="1" as="geometry">
            <mxPoint x="-129" y="1" as="offset" />
          </mxGeometry>
        </mxCell>
        <mxCell id="_-Q8mFuV5WVmhwefoIrQ-134" value="" style="endArrow=open;shadow=0;strokeWidth=1;rounded=0;curved=0;endFill=1;edgeStyle=elbowEdgeStyle;elbow=vertical;" edge="1" parent="WIyWlLk6GJQsqaUBKTNV-1" source="zkfFHV4jXpPFQw0GAbJ--13" target="_-Q8mFuV5WVmhwefoIrQ-92">
          <mxGeometry x="0.5" y="41" relative="1" as="geometry">
            <mxPoint x="90" y="708.82" as="sourcePoint" />
            <mxPoint x="10" y="720" as="targetPoint" />
            <mxPoint x="-40" y="32" as="offset" />
            <Array as="points">
              <mxPoint x="120" y="708.82" />
            </Array>
          </mxGeometry>
        </mxCell>
        <mxCell id="_-Q8mFuV5WVmhwefoIrQ-135" value="*" style="resizable=0;align=left;verticalAlign=bottom;labelBackgroundColor=none;fontSize=12;" connectable="0" vertex="1" parent="_-Q8mFuV5WVmhwefoIrQ-134">
          <mxGeometry x="-1" relative="1" as="geometry">
            <mxPoint x="10" y="24" as="offset" />
          </mxGeometry>
        </mxCell>
        <mxCell id="_-Q8mFuV5WVmhwefoIrQ-136" value="1" style="resizable=0;align=right;verticalAlign=bottom;labelBackgroundColor=none;fontSize=12;" connectable="0" vertex="1" parent="_-Q8mFuV5WVmhwefoIrQ-134">
          <mxGeometry x="1" relative="1" as="geometry">
            <mxPoint x="20" y="-3" as="offset" />
          </mxGeometry>
        </mxCell>
        <mxCell id="_-Q8mFuV5WVmhwefoIrQ-137" value="Recevoire" style="text;html=1;resizable=0;points=[];;align=center;verticalAlign=middle;labelBackgroundColor=none;rounded=0;shadow=0;strokeWidth=1;fontSize=12;" vertex="1" connectable="0" parent="_-Q8mFuV5WVmhwefoIrQ-134">
          <mxGeometry x="0.5" y="49" relative="1" as="geometry">
            <mxPoint x="175" y="-58" as="offset" />
          </mxGeometry>
        </mxCell>
        <mxCell id="_-Q8mFuV5WVmhwefoIrQ-139" value="" style="endArrow=open;shadow=0;strokeWidth=1;rounded=0;curved=0;endFill=1;edgeStyle=elbowEdgeStyle;elbow=vertical;exitX=0;exitY=0.5;exitDx=0;exitDy=0;entryX=0;entryY=1;entryDx=0;entryDy=0;" edge="1" parent="WIyWlLk6GJQsqaUBKTNV-1" source="zkfFHV4jXpPFQw0GAbJ--11" target="_-Q8mFuV5WVmhwefoIrQ-113">
          <mxGeometry x="0.5" y="41" relative="1" as="geometry">
            <mxPoint x="-760" y="747" as="sourcePoint" />
            <mxPoint x="-790" y="180" as="targetPoint" />
            <mxPoint x="-40" y="32" as="offset" />
            <Array as="points">
              <mxPoint x="-710" y="600" />
            </Array>
          </mxGeometry>
        </mxCell>
        <mxCell id="_-Q8mFuV5WVmhwefoIrQ-140" value="*" style="resizable=0;align=left;verticalAlign=bottom;labelBackgroundColor=none;fontSize=12;" connectable="0" vertex="1" parent="_-Q8mFuV5WVmhwefoIrQ-139">
          <mxGeometry x="-1" relative="1" as="geometry">
            <mxPoint x="-50" y="-176" as="offset" />
          </mxGeometry>
        </mxCell>
        <mxCell id="_-Q8mFuV5WVmhwefoIrQ-141" value="1" style="resizable=0;align=right;verticalAlign=bottom;labelBackgroundColor=none;fontSize=12;" connectable="0" vertex="1" parent="_-Q8mFuV5WVmhwefoIrQ-139">
          <mxGeometry x="1" relative="1" as="geometry">
            <mxPoint x="50" y="201" as="offset" />
          </mxGeometry>
        </mxCell>
        <mxCell id="_-Q8mFuV5WVmhwefoIrQ-142" value="Transporter" style="text;html=1;resizable=0;points=[];;align=center;verticalAlign=middle;labelBackgroundColor=none;rounded=0;shadow=0;strokeWidth=1;fontSize=12;" vertex="1" connectable="0" parent="_-Q8mFuV5WVmhwefoIrQ-139">
          <mxGeometry x="0.5" y="49" relative="1" as="geometry">
            <mxPoint x="9" y="37" as="offset" />
          </mxGeometry>
        </mxCell>
        <mxCell id="_-Q8mFuV5WVmhwefoIrQ-143" value="" style="endArrow=open;shadow=0;strokeWidth=1;rounded=0;curved=0;endFill=1;edgeStyle=elbowEdgeStyle;elbow=vertical;exitX=0;exitY=0.5;exitDx=0;exitDy=0;" edge="1" parent="WIyWlLk6GJQsqaUBKTNV-1" source="_-Q8mFuV5WVmhwefoIrQ-10" target="_-Q8mFuV5WVmhwefoIrQ-114">
          <mxGeometry x="0.5" y="41" relative="1" as="geometry">
            <mxPoint x="-710" y="782" as="sourcePoint" />
            <mxPoint x="-770" y="585" as="targetPoint" />
            <mxPoint x="-40" y="32" as="offset" />
            <Array as="points">
              <mxPoint x="-740" y="766" />
            </Array>
          </mxGeometry>
        </mxCell>
        <mxCell id="_-Q8mFuV5WVmhwefoIrQ-144" value="1" style="resizable=0;align=left;verticalAlign=bottom;labelBackgroundColor=none;fontSize=12;" connectable="0" vertex="1" parent="_-Q8mFuV5WVmhwefoIrQ-143">
          <mxGeometry x="-1" relative="1" as="geometry">
            <mxPoint x="-20" y="21" as="offset" />
          </mxGeometry>
        </mxCell>
        <mxCell id="_-Q8mFuV5WVmhwefoIrQ-145" value="1" style="resizable=0;align=right;verticalAlign=bottom;labelBackgroundColor=none;fontSize=12;" connectable="0" vertex="1" parent="_-Q8mFuV5WVmhwefoIrQ-143">
          <mxGeometry x="1" relative="1" as="geometry">
            <mxPoint x="-10" y="-8" as="offset" />
          </mxGeometry>
        </mxCell>
        <mxCell id="_-Q8mFuV5WVmhwefoIrQ-146" value="Planifier" style="text;html=1;resizable=0;points=[];;align=center;verticalAlign=middle;labelBackgroundColor=none;rounded=0;shadow=0;strokeWidth=1;fontSize=12;" vertex="1" connectable="0" parent="_-Q8mFuV5WVmhwefoIrQ-143">
          <mxGeometry x="0.5" y="49" relative="1" as="geometry">
            <mxPoint x="-89" y="-148" as="offset" />
          </mxGeometry>
        </mxCell>
      </root>
    </mxGraphModel>
  </diagram>
</mxfile>
